<mxfile host="app.diagrams.net" modified="2022-09-28T15:47:51.317Z" agent="5.0 (Macintosh; Intel Mac OS X 10_15_7) AppleWebKit/537.36 (KHTML, like Gecko) Chrome/105.0.0.0 Safari/537.36" etag="GDE95HwupT75eIvX72Nx" version="20.3.1" type="github">
  <diagram id="Yj_vzEqTpsTSU6RkFpzm" name="Page-1">
    <mxGraphModel dx="1783" dy="1001" grid="1" gridSize="10" guides="1" tooltips="1" connect="1" arrows="1" fold="1" page="1" pageScale="1" pageWidth="850" pageHeight="1100" math="0" shadow="0">
      <root>
        <mxCell id="0" />
        <mxCell id="1" parent="0" />
        <mxCell id="WacXzg7qdyJpNJZn4_8L-21" value="" style="rounded=0;whiteSpace=wrap;html=1;verticalAlign=top;align=center;spacingLeft=0;spacingTop=0;dashed=1;fillColor=#d5e8d4;strokeColor=#82b366;fontSize=16;borderRight=none;fontFamily=Courier New;" parent="1" vertex="1">
          <mxGeometry x="670" y="490" width="460" height="80" as="geometry" />
        </mxCell>
        <mxCell id="ODCxSDIAOIF_QO2Thnrf-40" value="VispyImage" style="rounded=0;whiteSpace=wrap;html=1;verticalAlign=top;align=center;spacingLeft=0;spacingTop=0;dashed=1;fillColor=#dae8fc;strokeColor=#6c8ebf;fontSize=16;horizontal=1;fontFamily=Courier New;" parent="1" vertex="1">
          <mxGeometry x="469.68" y="600" width="180.32" height="80" as="geometry" />
        </mxCell>
        <mxCell id="ODCxSDIAOIF_QO2Thnrf-16" value="Image" style="rounded=0;whiteSpace=wrap;html=1;verticalAlign=top;align=center;spacingLeft=0;spacingTop=0;dashed=1;fillColor=#d5e8d4;horizontal=1;strokeColor=#82b366;fontSize=16;fontFamily=Courier New;" parent="1" vertex="1">
          <mxGeometry x="910.38" y="245" width="219.62" height="325" as="geometry" />
        </mxCell>
        <mxCell id="ODCxSDIAOIF_QO2Thnrf-4" value="Image" style="rounded=0;whiteSpace=wrap;html=1;verticalAlign=top;align=center;spacingLeft=0;spacingTop=0;dashed=1;fillColor=#dae8fc;horizontal=1;strokeColor=#6c8ebf;fontSize=16;fontFamily=Courier New;" parent="1" vertex="1">
          <mxGeometry x="670.38" y="120" width="219.62" height="100" as="geometry" />
        </mxCell>
        <mxCell id="6yyRVk2ILkX0JGuf4gln-4" value="Viewer" style="rounded=0;whiteSpace=wrap;html=1;verticalAlign=top;align=center;spacingLeft=0;spacingTop=0;dashed=1;fillColor=#dae8fc;strokeColor=#6c8ebf;fontSize=16;fontFamily=Courier New;" parent="1" vertex="1">
          <mxGeometry x="470" y="110" width="180" height="220" as="geometry" />
        </mxCell>
        <mxCell id="6yyRVk2ILkX0JGuf4gln-6" value="slice_layers" style="rounded=0;whiteSpace=wrap;html=1;fontSize=14;fontFamily=Courier New;" parent="1" vertex="1">
          <mxGeometry x="480" y="140" width="160" height="180" as="geometry" />
        </mxCell>
        <mxCell id="6yyRVk2ILkX0JGuf4gln-2" value="Dims" style="rounded=0;whiteSpace=wrap;html=1;verticalAlign=top;align=center;spacingLeft=0;spacingTop=0;dashed=1;fillColor=#dae8fc;strokeColor=#6c8ebf;fontSize=16;fontFamily=Courier New;" parent="1" vertex="1">
          <mxGeometry x="280" y="100" width="170" height="250" as="geometry" />
        </mxCell>
        <mxCell id="6yyRVk2ILkX0JGuf4gln-3" value="events.&lt;br style=&quot;font-size: 14px;&quot;&gt;current_slice" style="rounded=0;whiteSpace=wrap;html=1;fontSize=14;fontFamily=Courier New;" parent="1" vertex="1">
          <mxGeometry x="290" y="130" width="150" height="210" as="geometry" />
        </mxCell>
        <mxCell id="6yyRVk2ILkX0JGuf4gln-54" value="" style="endArrow=classic;html=1;rounded=0;fontSize=16;fontFamily=Courier New;" parent="1" edge="1">
          <mxGeometry width="50" height="50" relative="1" as="geometry">
            <mxPoint x="249.99999999999966" y="130" as="sourcePoint" />
            <mxPoint x="289.99999999999966" y="130" as="targetPoint" />
          </mxGeometry>
        </mxCell>
        <mxCell id="6yyRVk2ILkX0JGuf4gln-55" value="" style="endArrow=classic;html=1;rounded=0;fontSize=16;fontFamily=Courier New;" parent="1" edge="1">
          <mxGeometry width="50" height="50" relative="1" as="geometry">
            <mxPoint x="439.6199999999998" y="140" as="sourcePoint" />
            <mxPoint x="479.6199999999998" y="140" as="targetPoint" />
          </mxGeometry>
        </mxCell>
        <mxCell id="6yyRVk2ILkX0JGuf4gln-69" value="" style="endArrow=classic;html=1;rounded=0;fontSize=16;fontFamily=Courier New;" parent="1" edge="1">
          <mxGeometry width="50" height="50" relative="1" as="geometry">
            <mxPoint x="480" y="319.9999999999998" as="sourcePoint" />
            <mxPoint x="440" y="319.9999999999993" as="targetPoint" />
          </mxGeometry>
        </mxCell>
        <mxCell id="6yyRVk2ILkX0JGuf4gln-70" value="" style="endArrow=classic;html=1;rounded=0;fontSize=16;fontFamily=Courier New;" parent="1" edge="1">
          <mxGeometry width="50" height="50" relative="1" as="geometry">
            <mxPoint x="290.0000000000002" y="339.9999999999997" as="sourcePoint" />
            <mxPoint x="250.00000000000023" y="339.99999999999903" as="targetPoint" />
          </mxGeometry>
        </mxCell>
        <mxCell id="ODCxSDIAOIF_QO2Thnrf-5" value="make_slice_request&lt;br style=&quot;font-size: 14px;&quot;&gt;(Dims) -&amp;gt;&lt;br style=&quot;font-size: 14px;&quot;&gt;SliceRequest" style="rounded=0;whiteSpace=wrap;html=1;fontSize=14;fontFamily=Courier New;" parent="1" vertex="1">
          <mxGeometry x="680.38" y="150" width="199.62" height="60" as="geometry" />
        </mxCell>
        <mxCell id="ODCxSDIAOIF_QO2Thnrf-8" value="Executor" style="rounded=0;whiteSpace=wrap;html=1;verticalAlign=top;align=center;spacingLeft=0;spacingTop=-16;dashed=1;fillColor=#dae8fc;horizontal=1;strokeColor=#6c8ebf;fontSize=16;fontFamily=Courier New;" parent="1" vertex="1">
          <mxGeometry x="670" y="235" width="220" height="80" as="geometry" />
        </mxCell>
        <mxCell id="ODCxSDIAOIF_QO2Thnrf-9" value="submit&lt;br style=&quot;font-size: 14px;&quot;&gt;(., SliceRequest) -&amp;gt;&lt;br style=&quot;font-size: 14px;&quot;&gt;Future[SliceResponse]" style="rounded=0;whiteSpace=wrap;html=1;fontSize=14;fontFamily=Courier New;" parent="1" vertex="1">
          <mxGeometry x="680" y="245" width="200" height="60" as="geometry" />
        </mxCell>
        <mxCell id="ODCxSDIAOIF_QO2Thnrf-10" value="" style="endArrow=classic;html=1;rounded=0;fontSize=16;fontFamily=Courier New;" parent="1" edge="1">
          <mxGeometry width="50" height="50" relative="1" as="geometry">
            <mxPoint x="679.9999999999999" y="304.9999999999998" as="sourcePoint" />
            <mxPoint x="639.9999999999999" y="304.9999999999993" as="targetPoint" />
          </mxGeometry>
        </mxCell>
        <mxCell id="ODCxSDIAOIF_QO2Thnrf-11" value="" style="endArrow=classic;html=1;rounded=0;fontSize=16;fontFamily=Courier New;" parent="1" edge="1">
          <mxGeometry width="50" height="50" relative="1" as="geometry">
            <mxPoint x="639.9999999999999" y="245.00000000000006" as="sourcePoint" />
            <mxPoint x="679.9999999999999" y="245.00000000000006" as="targetPoint" />
          </mxGeometry>
        </mxCell>
        <mxCell id="ODCxSDIAOIF_QO2Thnrf-15" value="get_slice&lt;br style=&quot;font-size: 14px;&quot;&gt;(SliceRequest) -&amp;gt; SliceResponse" style="rounded=0;whiteSpace=wrap;html=1;fontSize=14;fontFamily=Courier New;" parent="1" vertex="1">
          <mxGeometry x="920" y="275" width="200" height="255" as="geometry" />
        </mxCell>
        <mxCell id="ODCxSDIAOIF_QO2Thnrf-19" value="" style="endArrow=classic;html=1;rounded=0;fontSize=16;fontFamily=Courier New;" parent="1" edge="1">
          <mxGeometry width="50" height="50" relative="1" as="geometry">
            <mxPoint x="880.3799999999999" y="275" as="sourcePoint" />
            <mxPoint x="920.3799999999999" y="275" as="targetPoint" />
          </mxGeometry>
        </mxCell>
        <mxCell id="ODCxSDIAOIF_QO2Thnrf-24" value="" style="endArrow=classic;html=1;rounded=0;fontSize=16;fontFamily=Courier New;" parent="1" edge="1">
          <mxGeometry width="50" height="50" relative="1" as="geometry">
            <mxPoint x="920" y="530.0000000000002" as="sourcePoint" />
            <mxPoint x="880" y="529.9999999999991" as="targetPoint" />
          </mxGeometry>
        </mxCell>
        <mxCell id="ODCxSDIAOIF_QO2Thnrf-25" value="Viewer" style="rounded=0;whiteSpace=wrap;html=1;verticalAlign=top;align=center;spacingLeft=0;spacingTop=0;dashed=1;fillColor=#dae8fc;strokeColor=#6c8ebf;fontSize=16;fontFamily=Courier New;" parent="1" vertex="1">
          <mxGeometry x="280" y="590" width="170" height="100" as="geometry" />
        </mxCell>
        <mxCell id="ODCxSDIAOIF_QO2Thnrf-26" value="on_slice_ready&lt;br style=&quot;font-size: 14px;&quot;&gt;(SliceResponse)" style="rounded=0;whiteSpace=wrap;html=1;fontSize=14;fontFamily=Courier New;" parent="1" vertex="1">
          <mxGeometry x="290" y="620" width="150" height="60" as="geometry" />
        </mxCell>
        <mxCell id="ODCxSDIAOIF_QO2Thnrf-31" value="events.&lt;br style=&quot;font-size: 14px;&quot;&gt;slice_ready&lt;br style=&quot;font-size: 14px;&quot;&gt;[SliceResponse]" style="rounded=0;whiteSpace=wrap;html=1;fontSize=14;fontFamily=Courier New;" parent="1" vertex="1">
          <mxGeometry x="680" y="500" width="200" height="60" as="geometry" />
        </mxCell>
        <mxCell id="ODCxSDIAOIF_QO2Thnrf-39" value="set_slice&lt;br style=&quot;font-size: 14px;&quot;&gt;(SliceResponse)" style="rounded=0;whiteSpace=wrap;html=1;fontSize=14;fontFamily=Courier New;" parent="1" vertex="1">
          <mxGeometry x="479.68" y="630" width="160.32" height="40" as="geometry" />
        </mxCell>
        <mxCell id="ODCxSDIAOIF_QO2Thnrf-41" value="" style="endArrow=classic;html=1;rounded=0;fontSize=16;fontFamily=Courier New;" parent="1" edge="1">
          <mxGeometry width="50" height="50" relative="1" as="geometry">
            <mxPoint x="480.0000000000002" y="669.9999999999998" as="sourcePoint" />
            <mxPoint x="440.0000000000002" y="669.9999999999991" as="targetPoint" />
          </mxGeometry>
        </mxCell>
        <mxCell id="ODCxSDIAOIF_QO2Thnrf-42" value="" style="endArrow=classic;html=1;rounded=0;fontSize=16;fontFamily=Courier New;" parent="1" edge="1">
          <mxGeometry width="50" height="50" relative="1" as="geometry">
            <mxPoint x="440" y="630" as="sourcePoint" />
            <mxPoint x="480" y="630" as="targetPoint" />
          </mxGeometry>
        </mxCell>
        <mxCell id="ODCxSDIAOIF_QO2Thnrf-47" value="Main thread" style="rounded=0;whiteSpace=wrap;html=1;verticalAlign=top;align=center;spacingLeft=0;spacingTop=0;dashed=1;fillColor=#dae8fc;strokeColor=#6c8ebf;fontFamily=Courier New;fontSize=16;" parent="1" vertex="1">
          <mxGeometry x="935" y="130" width="170" height="30" as="geometry" />
        </mxCell>
        <mxCell id="ODCxSDIAOIF_QO2Thnrf-48" value="Slicing thread" style="rounded=0;whiteSpace=wrap;html=1;verticalAlign=top;align=center;spacingLeft=0;spacingTop=0;dashed=1;fillColor=#d5e8d4;strokeColor=#82b366;fontFamily=Courier New;fontSize=16;" parent="1" vertex="1">
          <mxGeometry x="935" y="180" width="170" height="30" as="geometry" />
        </mxCell>
        <mxCell id="WacXzg7qdyJpNJZn4_8L-6" value="" style="endArrow=classic;html=1;rounded=0;fontSize=16;fontFamily=Courier New;" parent="1" edge="1">
          <mxGeometry width="50" height="50" relative="1" as="geometry">
            <mxPoint x="639.9999999999999" y="150" as="sourcePoint" />
            <mxPoint x="679.9999999999999" y="150" as="targetPoint" />
          </mxGeometry>
        </mxCell>
        <mxCell id="WacXzg7qdyJpNJZn4_8L-7" value="" style="endArrow=classic;html=1;rounded=0;fontSize=16;fontFamily=Courier New;" parent="1" edge="1">
          <mxGeometry width="50" height="50" relative="1" as="geometry">
            <mxPoint x="679.9999999999999" y="209.99999999999977" as="sourcePoint" />
            <mxPoint x="639.9999999999999" y="209.99999999999932" as="targetPoint" />
          </mxGeometry>
        </mxCell>
        <mxCell id="WacXzg7qdyJpNJZn4_8L-10" value="" style="endArrow=classic;html=1;rounded=0;fontSize=20;strokeWidth=2;fontFamily=Courier New;" parent="1" edge="1">
          <mxGeometry width="50" height="50" relative="1" as="geometry">
            <mxPoint x="40" y="80" as="sourcePoint" />
            <mxPoint x="40" y="710" as="targetPoint" />
          </mxGeometry>
        </mxCell>
        <mxCell id="WacXzg7qdyJpNJZn4_8L-11" value="&lt;font style=&quot;font-size: 20px;&quot;&gt;Time&lt;/font&gt;" style="edgeLabel;html=1;align=center;verticalAlign=middle;resizable=0;points=[];fontSize=24;horizontal=0;fontFamily=Courier New;" parent="WacXzg7qdyJpNJZn4_8L-10" vertex="1" connectable="0">
          <mxGeometry x="-0.0443" y="-5" relative="1" as="geometry">
            <mxPoint as="offset" />
          </mxGeometry>
        </mxCell>
        <mxCell id="WacXzg7qdyJpNJZn4_8L-12" value="Qt main event loop" style="rounded=0;whiteSpace=wrap;html=1;verticalAlign=middle;align=center;spacingLeft=0;spacingTop=0;dashed=1;fillColor=#dae8fc;strokeColor=#6c8ebf;fontSize=16;horizontal=1;fontFamily=Courier New;" parent="1" vertex="1">
          <mxGeometry x="80" y="80" width="170" height="630" as="geometry" />
        </mxCell>
        <mxCell id="WacXzg7qdyJpNJZn4_8L-16" value="" style="endArrow=classic;html=1;rounded=0;fontSize=16;fontFamily=Courier New;" parent="1" edge="1">
          <mxGeometry width="50" height="50" relative="1" as="geometry">
            <mxPoint x="680" y="530" as="sourcePoint" />
            <mxPoint x="250" y="530" as="targetPoint" />
          </mxGeometry>
        </mxCell>
        <mxCell id="WacXzg7qdyJpNJZn4_8L-17" value="" style="endArrow=classic;html=1;rounded=0;fontSize=16;fontFamily=Courier New;" parent="1" edge="1">
          <mxGeometry width="50" height="50" relative="1" as="geometry">
            <mxPoint x="250" y="620" as="sourcePoint" />
            <mxPoint x="290" y="620" as="targetPoint" />
          </mxGeometry>
        </mxCell>
        <mxCell id="WacXzg7qdyJpNJZn4_8L-18" value="" style="endArrow=classic;html=1;rounded=0;fontSize=16;fontFamily=Courier New;" parent="1" edge="1">
          <mxGeometry width="50" height="50" relative="1" as="geometry">
            <mxPoint x="290.00000000000045" y="679.9999999999998" as="sourcePoint" />
            <mxPoint x="250.00000000000045" y="679.9999999999991" as="targetPoint" />
          </mxGeometry>
        </mxCell>
        <mxCell id="G7ooaP1NA_x7wRefDReL-1" value="" style="endArrow=none;dashed=1;html=1;dashPattern=1 3;strokeWidth=8;rounded=0;" parent="1" edge="1">
          <mxGeometry width="50" height="50" relative="1" as="geometry">
            <mxPoint x="360" y="490" as="sourcePoint" />
            <mxPoint x="360" y="370" as="targetPoint" />
          </mxGeometry>
        </mxCell>
        <mxCell id="G7ooaP1NA_x7wRefDReL-2" value="&lt;font face=&quot;Courier New&quot; style=&quot;font-size: 14px;&quot;&gt;Main event loop free to handle other events&lt;/font&gt;" style="text;html=1;strokeColor=none;fillColor=none;align=center;verticalAlign=middle;whiteSpace=wrap;rounded=0;fontSize=14;" parent="1" vertex="1">
          <mxGeometry x="390" y="390" width="150" height="90" as="geometry" />
        </mxCell>
      </root>
    </mxGraphModel>
  </diagram>
</mxfile>
